<svg xmlns="http://www.w3.org/2000/svg" xmlns:xlink="http://www.w3.org/1999/xlink" width="400" zoomAndPan="magnify" viewBox="0 0 300 299.999988" height="400" preserveAspectRatio="xMidYMid meet" version="1.0"><defs><g/><clipPath id="6cd9f4a346"><rect x="0" width="46" y="0" height="21"/></clipPath><clipPath id="e247073b0d"><path d="M 38 3 L 41.761719 3 L 41.761719 7 L 38 7 Z M 38 3 " clip-rule="nonzero"/></clipPath><clipPath id="b2f51f0285"><rect x="0" width="42" y="0" height="16"/></clipPath></defs><g transform="matrix(1, 0, 0, 1, 122, 114)"><g clip-path="url(#6cd9f4a346)"><g fill="#004aad" fill-opacity="1"><g transform="translate(0.506358, 16.301044)"><g><path d="M 12.0625 -6 C 12.0625 -4.925781 11.890625 -3.984375 11.546875 -3.171875 C 11.210938 -2.359375 10.75 -1.691406 10.15625 -1.171875 L 11.875 0.984375 L 9.515625 0.984375 L 8.546875 -0.203125 C 7.890625 0.0351562 7.1875 0.15625 6.4375 0.15625 C 5.375 0.15625 4.421875 -0.0820312 3.578125 -0.5625 C 2.734375 -1.039062 2.0625 -1.738281 1.5625 -2.65625 C 1.070312 -3.582031 0.828125 -4.695312 0.828125 -6 C 0.828125 -7.300781 1.070312 -8.410156 1.5625 -9.328125 C 2.0625 -10.242188 2.734375 -10.941406 3.578125 -11.421875 C 4.421875 -11.910156 5.375 -12.15625 6.4375 -12.15625 C 7.5 -12.15625 8.453125 -11.910156 9.296875 -11.421875 C 10.148438 -10.941406 10.820312 -10.242188 11.3125 -9.328125 C 11.8125 -8.410156 12.0625 -7.300781 12.0625 -6 Z M 5.5625 -4.171875 L 7.71875 -4.171875 L 8.609375 -3.03125 C 8.890625 -3.363281 9.101562 -3.773438 9.25 -4.265625 C 9.40625 -4.765625 9.484375 -5.34375 9.484375 -6 C 9.484375 -7.269531 9.207031 -8.238281 8.65625 -8.90625 C 8.101562 -9.570312 7.363281 -9.90625 6.4375 -9.90625 C 5.519531 -9.90625 4.785156 -9.570312 4.234375 -8.90625 C 3.679688 -8.238281 3.40625 -7.269531 3.40625 -6 C 3.40625 -4.726562 3.679688 -3.753906 4.234375 -3.078125 C 4.785156 -2.410156 5.519531 -2.078125 6.4375 -2.078125 C 6.675781 -2.078125 6.894531 -2.097656 7.09375 -2.140625 Z M 5.5625 -4.171875 "/></g></g></g><g fill="#004aad" fill-opacity="1"><g transform="translate(13.411575, 16.301044)"><g><path d="M 5.0625 0.171875 C 4.144531 0.171875 3.351562 -0.0195312 2.6875 -0.40625 C 2.03125 -0.789062 1.519531 -1.332031 1.15625 -2.03125 C 0.800781 -2.726562 0.625 -3.535156 0.625 -4.453125 C 0.625 -5.390625 0.800781 -6.203125 1.15625 -6.890625 C 1.519531 -7.585938 2.03125 -8.128906 2.6875 -8.515625 C 3.351562 -8.910156 4.144531 -9.109375 5.0625 -9.109375 C 5.96875 -9.109375 6.75 -8.910156 7.40625 -8.515625 C 8.070312 -8.128906 8.582031 -7.585938 8.9375 -6.890625 C 9.300781 -6.203125 9.484375 -5.390625 9.484375 -4.453125 C 9.484375 -3.535156 9.300781 -2.726562 8.9375 -2.03125 C 8.582031 -1.332031 8.070312 -0.789062 7.40625 -0.40625 C 6.75 -0.0195312 5.96875 0.171875 5.0625 0.171875 Z M 5.0625 -1.75 C 5.6875 -1.75 6.15625 -2.003906 6.46875 -2.515625 C 6.789062 -3.035156 6.953125 -3.691406 6.953125 -4.484375 C 6.953125 -5.265625 6.789062 -5.910156 6.46875 -6.421875 C 6.15625 -6.941406 5.6875 -7.203125 5.0625 -7.203125 C 4.4375 -7.203125 3.960938 -6.941406 3.640625 -6.421875 C 3.328125 -5.910156 3.171875 -5.265625 3.171875 -4.484375 C 3.171875 -3.691406 3.328125 -3.035156 3.640625 -2.515625 C 3.960938 -2.003906 4.4375 -1.75 5.0625 -1.75 Z M 5.0625 -1.75 "/></g></g></g><g fill="#004aad" fill-opacity="1"><g transform="translate(23.52964, 16.301044)"><g><path d="M 1 0 L 1 -8.984375 L 3.40625 -8.984375 L 3.40625 -7.421875 L 3.5 -7.421875 C 3.664062 -7.984375 3.941406 -8.40625 4.328125 -8.6875 C 4.710938 -8.976562 5.160156 -9.125 5.671875 -9.125 C 5.910156 -9.125 6.132812 -9.09375 6.34375 -9.03125 C 6.550781 -8.96875 6.734375 -8.890625 6.890625 -8.796875 L 6.140625 -6.734375 C 6.023438 -6.785156 5.898438 -6.832031 5.765625 -6.875 C 5.628906 -6.914062 5.472656 -6.9375 5.296875 -6.9375 C 4.796875 -6.9375 4.367188 -6.765625 4.015625 -6.421875 C 3.671875 -6.078125 3.492188 -5.632812 3.484375 -5.09375 L 3.484375 0 Z M 1 0 "/></g></g></g><g fill="#ff3131" fill-opacity="1"><g transform="translate(30.597501, 16.301044)"><g><path d="M 1 0 L 1 -8.984375 L 3.484375 -8.984375 L 3.484375 0 Z M 2.25 -10.15625 C 1.875 -10.15625 1.550781 -10.273438 1.28125 -10.515625 C 1.019531 -10.765625 0.890625 -11.066406 0.890625 -11.421875 C 0.890625 -11.765625 1.019531 -12.054688 1.28125 -12.296875 C 1.550781 -12.546875 1.875 -12.671875 2.25 -12.671875 C 2.613281 -12.671875 2.925781 -12.546875 3.1875 -12.296875 C 3.457031 -12.054688 3.59375 -11.765625 3.59375 -11.421875 C 3.59375 -11.066406 3.457031 -10.765625 3.1875 -10.515625 C 2.925781 -10.273438 2.613281 -10.15625 2.25 -10.15625 Z M 2.25 -10.15625 "/></g></g></g><g fill="#004aad" fill-opacity="1"><g transform="translate(35.085348, 16.301044)"><g><path d="M 9.421875 3.375 L 9.421875 -8.984375 L 6.96875 -8.984375 L 6.96875 -7.484375 L 6.859375 -7.484375 C 6.742188 -7.722656 6.582031 -7.96875 6.375 -8.21875 C 6.164062 -8.46875 5.890625 -8.675781 5.546875 -8.84375 C 5.210938 -9.019531 4.796875 -9.109375 4.296875 -9.109375 C 3.640625 -9.109375 3.035156 -8.9375 2.484375 -8.59375 C 1.929688 -8.25 1.488281 -7.734375 1.15625 -7.046875 C 0.820312 -6.367188 0.65625 -5.515625 0.65625 -4.484375 C 0.65625 -3.484375 0.816406 -2.632812 1.140625 -1.9375 C 1.460938 -1.25 1.898438 -0.726562 2.453125 -0.375 C 3.003906 -0.03125 3.617188 0.140625 4.296875 0.140625 C 4.785156 0.140625 5.195312 0.0625 5.53125 -0.09375 C 5.875 -0.25 6.148438 -0.445312 6.359375 -0.6875 C 6.578125 -0.9375 6.742188 -1.1875 6.859375 -1.4375 L 6.9375 -1.4375 L 6.9375 3.375 Z M 6.984375 -4.5 C 6.984375 -3.695312 6.816406 -3.050781 6.484375 -2.5625 C 6.160156 -2.082031 5.695312 -1.84375 5.09375 -1.84375 C 4.476562 -1.84375 4.007812 -2.085938 3.6875 -2.578125 C 3.363281 -3.066406 3.203125 -3.707031 3.203125 -4.5 C 3.203125 -5.28125 3.363281 -5.910156 3.6875 -6.390625 C 4.007812 -6.878906 4.476562 -7.125 5.09375 -7.125 C 5.695312 -7.125 6.160156 -6.882812 6.484375 -6.40625 C 6.816406 -5.9375 6.984375 -5.300781 6.984375 -4.5 Z M 6.984375 -4.5 "/></g></g></g></g></g><g transform="matrix(1, 0, 0, 1, 126, 133)"><g clip-path="url(#b2f51f0285)"><g fill="#545454" fill-opacity="1"><g transform="translate(1.13309, 6.22529)"><g><path d="M 2.84375 -2.90625 C 2.84375 -3.113281 2.773438 -3.269531 2.640625 -3.375 C 2.503906 -3.488281 2.316406 -3.546875 2.078125 -3.546875 C 1.816406 -3.546875 1.597656 -3.484375 1.421875 -3.359375 C 1.242188 -3.234375 1.140625 -3.078125 1.109375 -2.890625 C 1.085938 -2.785156 1.097656 -2.695312 1.140625 -2.625 C 1.179688 -2.550781 1.234375 -2.488281 1.296875 -2.4375 C 1.367188 -2.382812 1.445312 -2.34375 1.53125 -2.3125 C 1.613281 -2.28125 1.6875 -2.257812 1.75 -2.25 L 2.140625 -2.140625 C 2.234375 -2.109375 2.335938 -2.066406 2.453125 -2.015625 C 2.566406 -1.972656 2.675781 -1.910156 2.78125 -1.828125 C 2.882812 -1.753906 2.960938 -1.65625 3.015625 -1.53125 C 3.066406 -1.40625 3.078125 -1.25 3.046875 -1.0625 C 3.015625 -0.851562 2.929688 -0.660156 2.796875 -0.484375 C 2.660156 -0.316406 2.476562 -0.179688 2.25 -0.078125 C 2.019531 0.015625 1.753906 0.0625 1.453125 0.0625 C 1.035156 0.0625 0.71875 -0.0351562 0.5 -0.234375 C 0.289062 -0.429688 0.203125 -0.691406 0.234375 -1.015625 L 0.71875 -1.015625 C 0.707031 -0.859375 0.734375 -0.734375 0.796875 -0.640625 C 0.867188 -0.546875 0.96875 -0.472656 1.09375 -0.421875 C 1.226562 -0.378906 1.375 -0.359375 1.53125 -0.359375 C 1.707031 -0.359375 1.875 -0.382812 2.03125 -0.4375 C 2.1875 -0.5 2.3125 -0.582031 2.40625 -0.6875 C 2.507812 -0.800781 2.570312 -0.925781 2.59375 -1.0625 C 2.613281 -1.195312 2.59375 -1.304688 2.53125 -1.390625 C 2.476562 -1.472656 2.394531 -1.535156 2.28125 -1.578125 C 2.175781 -1.628906 2.054688 -1.675781 1.921875 -1.71875 L 1.46875 -1.859375 C 1.175781 -1.941406 0.953125 -2.0625 0.796875 -2.21875 C 0.648438 -2.382812 0.597656 -2.601562 0.640625 -2.875 C 0.679688 -3.09375 0.773438 -3.28125 0.921875 -3.4375 C 1.066406 -3.601562 1.242188 -3.734375 1.453125 -3.828125 C 1.671875 -3.921875 1.90625 -3.96875 2.15625 -3.96875 C 2.40625 -3.96875 2.617188 -3.921875 2.796875 -3.828125 C 2.984375 -3.734375 3.117188 -3.601562 3.203125 -3.4375 C 3.296875 -3.28125 3.332031 -3.101562 3.3125 -2.90625 Z M 2.84375 -2.90625 "/></g></g></g><g fill="#545454" fill-opacity="1"><g transform="translate(4.560116, 6.22529)"><g><path d="M 1.375 0.0625 C 1.113281 0.0625 0.890625 0 0.703125 -0.125 C 0.523438 -0.257812 0.394531 -0.441406 0.3125 -0.671875 C 0.238281 -0.898438 0.226562 -1.171875 0.28125 -1.484375 C 0.332031 -1.785156 0.429688 -2.046875 0.578125 -2.265625 C 0.722656 -2.492188 0.898438 -2.664062 1.109375 -2.78125 C 1.328125 -2.90625 1.566406 -2.96875 1.828125 -2.96875 C 2.097656 -2.96875 2.320312 -2.898438 2.5 -2.765625 C 2.6875 -2.640625 2.816406 -2.460938 2.890625 -2.234375 C 2.960938 -2.003906 2.972656 -1.734375 2.921875 -1.421875 C 2.878906 -1.117188 2.785156 -0.859375 2.640625 -0.640625 C 2.492188 -0.421875 2.3125 -0.25 2.09375 -0.125 C 1.875 0 1.632812 0.0625 1.375 0.0625 Z M 1.390625 -0.34375 C 1.597656 -0.34375 1.773438 -0.394531 1.921875 -0.5 C 2.078125 -0.601562 2.203125 -0.738281 2.296875 -0.90625 C 2.390625 -1.082031 2.453125 -1.273438 2.484375 -1.484375 C 2.515625 -1.671875 2.515625 -1.847656 2.484375 -2.015625 C 2.453125 -2.179688 2.378906 -2.3125 2.265625 -2.40625 C 2.160156 -2.507812 2.007812 -2.5625 1.8125 -2.5625 C 1.613281 -2.5625 1.4375 -2.507812 1.28125 -2.40625 C 1.125 -2.300781 1 -2.160156 0.90625 -1.984375 C 0.8125 -1.804688 0.75 -1.617188 0.71875 -1.421875 C 0.6875 -1.234375 0.6875 -1.054688 0.71875 -0.890625 C 0.75 -0.722656 0.816406 -0.585938 0.921875 -0.484375 C 1.035156 -0.390625 1.191406 -0.34375 1.390625 -0.34375 Z M 1.390625 -0.34375 "/></g></g></g><g fill="#545454" fill-opacity="1"><g transform="translate(7.765797, 6.22529)"><g><path d="M 1.265625 -3.90625 L 0.625 0 L 0.171875 0 L 0.8125 -3.90625 Z M 1.265625 -3.90625 "/></g></g></g><g fill="#545454" fill-opacity="1"><g transform="translate(9.040436, 6.22529)"><g><path d="M 3.046875 -2.9375 L 1.484375 0 L 1.015625 0 L 0.421875 -2.9375 L 0.90625 -2.9375 L 1.328125 -0.59375 L 1.34375 -0.59375 L 2.546875 -2.9375 Z M 3.046875 -2.9375 "/></g></g></g><g fill="#545454" fill-opacity="1"><g transform="translate(11.925516, 6.22529)"><g><path d="M 1.390625 0.0625 C 1.109375 0.0625 0.875 0 0.6875 -0.125 C 0.507812 -0.25 0.382812 -0.425781 0.3125 -0.65625 C 0.238281 -0.882812 0.226562 -1.144531 0.28125 -1.4375 C 0.320312 -1.738281 0.414062 -2.003906 0.5625 -2.234375 C 0.71875 -2.460938 0.90625 -2.640625 1.125 -2.765625 C 1.34375 -2.898438 1.582031 -2.96875 1.84375 -2.96875 C 2 -2.96875 2.144531 -2.941406 2.28125 -2.890625 C 2.425781 -2.835938 2.550781 -2.753906 2.65625 -2.640625 C 2.757812 -2.523438 2.832031 -2.375 2.875 -2.1875 C 2.914062 -2.007812 2.910156 -1.78125 2.859375 -1.5 L 2.828125 -1.3125 L 0.703125 -1.3125 C 0.648438 -0.957031 0.691406 -0.707031 0.828125 -0.5625 C 0.960938 -0.414062 1.171875 -0.34375 1.453125 -0.34375 C 1.640625 -0.34375 1.800781 -0.378906 1.9375 -0.453125 C 2.070312 -0.535156 2.179688 -0.648438 2.265625 -0.796875 L 2.6875 -0.671875 C 2.570312 -0.453125 2.398438 -0.273438 2.171875 -0.140625 C 1.953125 -0.00390625 1.691406 0.0625 1.390625 0.0625 Z M 0.765625 -1.703125 L 2.4375 -1.703125 C 2.476562 -1.953125 2.4375 -2.15625 2.3125 -2.3125 C 2.195312 -2.476562 2.019531 -2.5625 1.78125 -2.5625 C 1.613281 -2.5625 1.457031 -2.519531 1.3125 -2.4375 C 1.175781 -2.351562 1.054688 -2.242188 0.953125 -2.109375 C 0.859375 -1.972656 0.796875 -1.835938 0.765625 -1.703125 Z M 0.765625 -1.703125 "/></g></g></g><g fill="#545454" fill-opacity="1"><g transform="translate(15.062503, 6.22529)"><g/></g></g><g fill="#545454" fill-opacity="1"><g transform="translate(16.573754, 6.22529)"><g><path d="M 0.546875 -3.90625 L 1.078125 -3.90625 L 1.875 -2.078125 L 1.921875 -2.078125 L 3.296875 -3.90625 L 3.84375 -3.90625 L 2.046875 -1.609375 L 1.78125 0 L 1.3125 0 L 1.578125 -1.609375 Z M 0.546875 -3.90625 "/></g></g></g><g fill="#545454" fill-opacity="1"><g transform="translate(19.73351, 6.22529)"><g><path d="M 1.375 0.0625 C 1.113281 0.0625 0.890625 0 0.703125 -0.125 C 0.523438 -0.257812 0.394531 -0.441406 0.3125 -0.671875 C 0.238281 -0.898438 0.226562 -1.171875 0.28125 -1.484375 C 0.332031 -1.785156 0.429688 -2.046875 0.578125 -2.265625 C 0.722656 -2.492188 0.898438 -2.664062 1.109375 -2.78125 C 1.328125 -2.90625 1.566406 -2.96875 1.828125 -2.96875 C 2.097656 -2.96875 2.320312 -2.898438 2.5 -2.765625 C 2.6875 -2.640625 2.816406 -2.460938 2.890625 -2.234375 C 2.960938 -2.003906 2.972656 -1.734375 2.921875 -1.421875 C 2.878906 -1.117188 2.785156 -0.859375 2.640625 -0.640625 C 2.492188 -0.421875 2.3125 -0.25 2.09375 -0.125 C 1.875 0 1.632812 0.0625 1.375 0.0625 Z M 1.390625 -0.34375 C 1.597656 -0.34375 1.773438 -0.394531 1.921875 -0.5 C 2.078125 -0.601562 2.203125 -0.738281 2.296875 -0.90625 C 2.390625 -1.082031 2.453125 -1.273438 2.484375 -1.484375 C 2.515625 -1.671875 2.515625 -1.847656 2.484375 -2.015625 C 2.453125 -2.179688 2.378906 -2.3125 2.265625 -2.40625 C 2.160156 -2.507812 2.007812 -2.5625 1.8125 -2.5625 C 1.613281 -2.5625 1.4375 -2.507812 1.28125 -2.40625 C 1.125 -2.300781 1 -2.160156 0.90625 -1.984375 C 0.8125 -1.804688 0.75 -1.617188 0.71875 -1.421875 C 0.6875 -1.234375 0.6875 -1.054688 0.71875 -0.890625 C 0.75 -0.722656 0.816406 -0.585938 0.921875 -0.484375 C 1.035156 -0.390625 1.191406 -0.34375 1.390625 -0.34375 Z M 1.390625 -0.34375 "/></g></g></g><g fill="#545454" fill-opacity="1"><g transform="translate(22.939191, 6.22529)"><g><path d="M 2.21875 -1.203125 L 2.5 -2.9375 L 2.953125 -2.9375 L 2.46875 0 L 2.015625 0 L 2.09375 -0.5 L 2.0625 -0.5 C 1.976562 -0.34375 1.851562 -0.210938 1.6875 -0.109375 C 1.519531 -0.015625 1.328125 0.03125 1.109375 0.03125 C 0.828125 0.03125 0.613281 -0.0546875 0.46875 -0.234375 C 0.320312 -0.410156 0.28125 -0.6875 0.34375 -1.0625 L 0.65625 -2.9375 L 1.109375 -2.9375 L 0.796875 -1.09375 C 0.765625 -0.882812 0.796875 -0.710938 0.890625 -0.578125 C 0.992188 -0.453125 1.140625 -0.390625 1.328125 -0.390625 C 1.441406 -0.390625 1.5625 -0.414062 1.6875 -0.46875 C 1.8125 -0.53125 1.921875 -0.617188 2.015625 -0.734375 C 2.117188 -0.859375 2.1875 -1.015625 2.21875 -1.203125 Z M 2.21875 -1.203125 "/></g></g></g><g fill="#545454" fill-opacity="1"><g transform="translate(26.060914, 6.22529)"><g><path d="M 0.171875 0 L 0.65625 -2.9375 L 1.09375 -2.9375 L 1.015625 -2.484375 L 1.046875 -2.484375 C 1.117188 -2.628906 1.234375 -2.75 1.390625 -2.84375 C 1.546875 -2.9375 1.710938 -2.984375 1.890625 -2.984375 C 2.046875 -2.984375 2.164062 -2.945312 2.25 -2.875 L 2.03125 -2.5 C 1.976562 -2.53125 1.894531 -2.546875 1.78125 -2.546875 C 1.632812 -2.546875 1.5 -2.515625 1.375 -2.453125 C 1.257812 -2.390625 1.160156 -2.304688 1.078125 -2.203125 C 0.992188 -2.097656 0.941406 -1.984375 0.921875 -1.859375 L 0.625 0 Z M 0.171875 0 "/></g></g></g><g fill="#545454" fill-opacity="1"><g transform="translate(28.121711, 6.22529)"><g/></g></g><g fill="#545454" fill-opacity="1"><g transform="translate(29.632962, 6.22529)"><g><path d="M 1.453125 0 L 0.234375 0 L 0.875 -3.90625 L 2.125 -3.90625 C 2.5 -3.90625 2.8125 -3.828125 3.0625 -3.671875 C 3.3125 -3.515625 3.484375 -3.285156 3.578125 -2.984375 C 3.671875 -2.691406 3.6875 -2.34375 3.625 -1.9375 C 3.550781 -1.53125 3.421875 -1.179688 3.234375 -0.890625 C 3.046875 -0.609375 2.800781 -0.390625 2.5 -0.234375 C 2.195312 -0.078125 1.847656 0 1.453125 0 Z M 0.765625 -0.421875 L 1.46875 -0.421875 C 1.945312 -0.421875 2.328125 -0.5625 2.609375 -0.84375 C 2.898438 -1.125 3.085938 -1.507812 3.171875 -2 C 3.242188 -2.457031 3.1875 -2.816406 3 -3.078125 C 2.820312 -3.347656 2.503906 -3.484375 2.046875 -3.484375 L 1.28125 -3.484375 Z M 0.765625 -0.421875 "/></g></g></g><g fill="#545454" fill-opacity="1"><g transform="translate(33.495046, 6.22529)"><g><path d="M 1.015625 0.0625 C 0.835938 0.0625 0.675781 0.03125 0.53125 -0.03125 C 0.394531 -0.101562 0.289062 -0.207031 0.21875 -0.34375 C 0.15625 -0.476562 0.140625 -0.640625 0.171875 -0.828125 C 0.203125 -0.992188 0.257812 -1.128906 0.34375 -1.234375 C 0.425781 -1.347656 0.523438 -1.429688 0.640625 -1.484375 C 0.765625 -1.546875 0.894531 -1.59375 1.03125 -1.625 C 1.175781 -1.65625 1.316406 -1.675781 1.453125 -1.6875 C 1.628906 -1.71875 1.773438 -1.738281 1.890625 -1.75 C 2.003906 -1.757812 2.085938 -1.78125 2.140625 -1.8125 C 2.203125 -1.84375 2.238281 -1.894531 2.25 -1.96875 L 2.25 -1.984375 C 2.28125 -2.171875 2.253906 -2.316406 2.171875 -2.421875 C 2.097656 -2.523438 1.957031 -2.578125 1.75 -2.578125 C 1.53125 -2.578125 1.347656 -2.53125 1.203125 -2.4375 C 1.066406 -2.34375 0.960938 -2.238281 0.890625 -2.125 L 0.5 -2.28125 C 0.601562 -2.457031 0.726562 -2.59375 0.875 -2.6875 C 1.019531 -2.789062 1.171875 -2.863281 1.328125 -2.90625 C 1.484375 -2.945312 1.632812 -2.96875 1.78125 -2.96875 C 1.875 -2.96875 1.976562 -2.957031 2.09375 -2.9375 C 2.21875 -2.914062 2.332031 -2.867188 2.4375 -2.796875 C 2.539062 -2.734375 2.617188 -2.628906 2.671875 -2.484375 C 2.722656 -2.347656 2.726562 -2.164062 2.6875 -1.9375 L 2.375 0 L 1.921875 0 L 2 -0.390625 L 1.96875 -0.390625 C 1.925781 -0.328125 1.863281 -0.257812 1.78125 -0.1875 C 1.695312 -0.113281 1.59375 -0.0507812 1.46875 0 C 1.34375 0.0390625 1.191406 0.0625 1.015625 0.0625 Z M 1.15625 -0.34375 C 1.332031 -0.34375 1.488281 -0.375 1.625 -0.4375 C 1.757812 -0.507812 1.863281 -0.597656 1.9375 -0.703125 C 2.019531 -0.816406 2.070312 -0.9375 2.09375 -1.0625 L 2.171875 -1.46875 C 2.148438 -1.445312 2.101562 -1.425781 2.03125 -1.40625 C 1.96875 -1.394531 1.890625 -1.378906 1.796875 -1.359375 C 1.710938 -1.347656 1.628906 -1.335938 1.546875 -1.328125 C 1.472656 -1.316406 1.410156 -1.3125 1.359375 -1.3125 C 1.242188 -1.289062 1.128906 -1.265625 1.015625 -1.234375 C 0.910156 -1.203125 0.820312 -1.148438 0.75 -1.078125 C 0.675781 -1.015625 0.632812 -0.925781 0.625 -0.8125 C 0.59375 -0.65625 0.628906 -0.535156 0.734375 -0.453125 C 0.835938 -0.378906 0.976562 -0.34375 1.15625 -0.34375 Z M 1.15625 -0.34375 "/></g></g></g><g fill="#545454" fill-opacity="1"><g transform="translate(36.525179, 6.22529)"><g><path d="M 1.9375 -2.9375 L 1.875 -2.546875 L 1.234375 -2.546875 L 0.953125 -0.84375 C 0.929688 -0.71875 0.929688 -0.617188 0.953125 -0.546875 C 0.984375 -0.484375 1.023438 -0.441406 1.078125 -0.421875 C 1.140625 -0.398438 1.207031 -0.390625 1.28125 -0.390625 C 1.320312 -0.390625 1.359375 -0.394531 1.390625 -0.40625 C 1.421875 -0.414062 1.445312 -0.421875 1.46875 -0.421875 L 1.5 -0.015625 C 1.46875 -0.00390625 1.421875 0.00390625 1.359375 0.015625 C 1.304688 0.0234375 1.238281 0.03125 1.15625 0.03125 C 1.03125 0.03125 0.910156 0.00390625 0.796875 -0.046875 C 0.679688 -0.0976562 0.59375 -0.179688 0.53125 -0.296875 C 0.476562 -0.410156 0.460938 -0.550781 0.484375 -0.71875 L 0.796875 -2.546875 L 0.34375 -2.546875 L 0.40625 -2.9375 L 0.859375 -2.9375 L 0.96875 -3.640625 L 1.421875 -3.640625 L 1.296875 -2.9375 Z M 1.9375 -2.9375 "/></g></g></g><g clip-path="url(#e247073b0d)"><g fill="#545454" fill-opacity="1"><g transform="translate(38.479117, 6.22529)"><g><path d="M 1.015625 0.0625 C 0.835938 0.0625 0.675781 0.03125 0.53125 -0.03125 C 0.394531 -0.101562 0.289062 -0.207031 0.21875 -0.34375 C 0.15625 -0.476562 0.140625 -0.640625 0.171875 -0.828125 C 0.203125 -0.992188 0.257812 -1.128906 0.34375 -1.234375 C 0.425781 -1.347656 0.523438 -1.429688 0.640625 -1.484375 C 0.765625 -1.546875 0.894531 -1.59375 1.03125 -1.625 C 1.175781 -1.65625 1.316406 -1.675781 1.453125 -1.6875 C 1.628906 -1.71875 1.773438 -1.738281 1.890625 -1.75 C 2.003906 -1.757812 2.085938 -1.78125 2.140625 -1.8125 C 2.203125 -1.84375 2.238281 -1.894531 2.25 -1.96875 L 2.25 -1.984375 C 2.28125 -2.171875 2.253906 -2.316406 2.171875 -2.421875 C 2.097656 -2.523438 1.957031 -2.578125 1.75 -2.578125 C 1.53125 -2.578125 1.347656 -2.53125 1.203125 -2.4375 C 1.066406 -2.34375 0.960938 -2.238281 0.890625 -2.125 L 0.5 -2.28125 C 0.601562 -2.457031 0.726562 -2.59375 0.875 -2.6875 C 1.019531 -2.789062 1.171875 -2.863281 1.328125 -2.90625 C 1.484375 -2.945312 1.632812 -2.96875 1.78125 -2.96875 C 1.875 -2.96875 1.976562 -2.957031 2.09375 -2.9375 C 2.21875 -2.914062 2.332031 -2.867188 2.4375 -2.796875 C 2.539062 -2.734375 2.617188 -2.628906 2.671875 -2.484375 C 2.722656 -2.347656 2.726562 -2.164062 2.6875 -1.9375 L 2.375 0 L 1.921875 0 L 2 -0.390625 L 1.96875 -0.390625 C 1.925781 -0.328125 1.863281 -0.257812 1.78125 -0.1875 C 1.695312 -0.113281 1.59375 -0.0507812 1.46875 0 C 1.34375 0.0390625 1.191406 0.0625 1.015625 0.0625 Z M 1.15625 -0.34375 C 1.332031 -0.34375 1.488281 -0.375 1.625 -0.4375 C 1.757812 -0.507812 1.863281 -0.597656 1.9375 -0.703125 C 2.019531 -0.816406 2.070312 -0.9375 2.09375 -1.0625 L 2.171875 -1.46875 C 2.148438 -1.445312 2.101562 -1.425781 2.03125 -1.40625 C 1.96875 -1.394531 1.890625 -1.378906 1.796875 -1.359375 C 1.710938 -1.347656 1.628906 -1.335938 1.546875 -1.328125 C 1.472656 -1.316406 1.410156 -1.3125 1.359375 -1.3125 C 1.242188 -1.289062 1.128906 -1.265625 1.015625 -1.234375 C 0.910156 -1.203125 0.820312 -1.148438 0.75 -1.078125 C 0.675781 -1.015625 0.632812 -0.925781 0.625 -0.8125 C 0.59375 -0.65625 0.628906 -0.535156 0.734375 -0.453125 C 0.835938 -0.378906 0.976562 -0.34375 1.15625 -0.34375 Z M 1.15625 -0.34375 "/></g></g></g></g><g fill="#545454" fill-opacity="1"><g transform="translate(4.540208, 13.72529)"><g><path d="M 2.84375 -2.90625 C 2.84375 -3.113281 2.773438 -3.269531 2.640625 -3.375 C 2.503906 -3.488281 2.316406 -3.546875 2.078125 -3.546875 C 1.816406 -3.546875 1.597656 -3.484375 1.421875 -3.359375 C 1.242188 -3.234375 1.140625 -3.078125 1.109375 -2.890625 C 1.085938 -2.785156 1.097656 -2.695312 1.140625 -2.625 C 1.179688 -2.550781 1.234375 -2.488281 1.296875 -2.4375 C 1.367188 -2.382812 1.445312 -2.34375 1.53125 -2.3125 C 1.613281 -2.28125 1.6875 -2.257812 1.75 -2.25 L 2.140625 -2.140625 C 2.234375 -2.109375 2.335938 -2.066406 2.453125 -2.015625 C 2.566406 -1.972656 2.675781 -1.910156 2.78125 -1.828125 C 2.882812 -1.753906 2.960938 -1.65625 3.015625 -1.53125 C 3.066406 -1.40625 3.078125 -1.25 3.046875 -1.0625 C 3.015625 -0.851562 2.929688 -0.660156 2.796875 -0.484375 C 2.660156 -0.316406 2.476562 -0.179688 2.25 -0.078125 C 2.019531 0.015625 1.753906 0.0625 1.453125 0.0625 C 1.035156 0.0625 0.71875 -0.0351562 0.5 -0.234375 C 0.289062 -0.429688 0.203125 -0.691406 0.234375 -1.015625 L 0.71875 -1.015625 C 0.707031 -0.859375 0.734375 -0.734375 0.796875 -0.640625 C 0.867188 -0.546875 0.96875 -0.472656 1.09375 -0.421875 C 1.226562 -0.378906 1.375 -0.359375 1.53125 -0.359375 C 1.707031 -0.359375 1.875 -0.382812 2.03125 -0.4375 C 2.1875 -0.5 2.3125 -0.582031 2.40625 -0.6875 C 2.507812 -0.800781 2.570312 -0.925781 2.59375 -1.0625 C 2.613281 -1.195312 2.59375 -1.304688 2.53125 -1.390625 C 2.476562 -1.472656 2.394531 -1.535156 2.28125 -1.578125 C 2.175781 -1.628906 2.054688 -1.675781 1.921875 -1.71875 L 1.46875 -1.859375 C 1.175781 -1.941406 0.953125 -2.0625 0.796875 -2.21875 C 0.648438 -2.382812 0.597656 -2.601562 0.640625 -2.875 C 0.679688 -3.09375 0.773438 -3.28125 0.921875 -3.4375 C 1.066406 -3.601562 1.242188 -3.734375 1.453125 -3.828125 C 1.671875 -3.921875 1.90625 -3.96875 2.15625 -3.96875 C 2.40625 -3.96875 2.617188 -3.921875 2.796875 -3.828125 C 2.984375 -3.734375 3.117188 -3.601562 3.203125 -3.4375 C 3.296875 -3.28125 3.332031 -3.101562 3.3125 -2.90625 Z M 2.84375 -2.90625 "/></g></g></g><g fill="#545454" fill-opacity="1"><g transform="translate(7.967234, 13.72529)"><g><path d="M 1.375 0.0625 C 1.113281 0.0625 0.890625 0 0.703125 -0.125 C 0.523438 -0.257812 0.394531 -0.441406 0.3125 -0.671875 C 0.238281 -0.898438 0.226562 -1.171875 0.28125 -1.484375 C 0.332031 -1.785156 0.429688 -2.046875 0.578125 -2.265625 C 0.722656 -2.492188 0.898438 -2.664062 1.109375 -2.78125 C 1.328125 -2.90625 1.566406 -2.96875 1.828125 -2.96875 C 2.097656 -2.96875 2.320312 -2.898438 2.5 -2.765625 C 2.6875 -2.640625 2.816406 -2.460938 2.890625 -2.234375 C 2.960938 -2.003906 2.972656 -1.734375 2.921875 -1.421875 C 2.878906 -1.117188 2.785156 -0.859375 2.640625 -0.640625 C 2.492188 -0.421875 2.3125 -0.25 2.09375 -0.125 C 1.875 0 1.632812 0.0625 1.375 0.0625 Z M 1.390625 -0.34375 C 1.597656 -0.34375 1.773438 -0.394531 1.921875 -0.5 C 2.078125 -0.601562 2.203125 -0.738281 2.296875 -0.90625 C 2.390625 -1.082031 2.453125 -1.273438 2.484375 -1.484375 C 2.515625 -1.671875 2.515625 -1.847656 2.484375 -2.015625 C 2.453125 -2.179688 2.378906 -2.3125 2.265625 -2.40625 C 2.160156 -2.507812 2.007812 -2.5625 1.8125 -2.5625 C 1.613281 -2.5625 1.4375 -2.507812 1.28125 -2.40625 C 1.125 -2.300781 1 -2.160156 0.90625 -1.984375 C 0.8125 -1.804688 0.75 -1.617188 0.71875 -1.421875 C 0.6875 -1.234375 0.6875 -1.054688 0.71875 -0.890625 C 0.75 -0.722656 0.816406 -0.585938 0.921875 -0.484375 C 1.035156 -0.390625 1.191406 -0.34375 1.390625 -0.34375 Z M 1.390625 -0.34375 "/></g></g></g><g fill="#545454" fill-opacity="1"><g transform="translate(11.172915, 13.72529)"><g><path d="M 1.265625 -3.90625 L 0.625 0 L 0.171875 0 L 0.8125 -3.90625 Z M 1.265625 -3.90625 "/></g></g></g><g fill="#545454" fill-opacity="1"><g transform="translate(12.447553, 13.72529)"><g><path d="M 3.046875 -2.9375 L 1.484375 0 L 1.015625 0 L 0.421875 -2.9375 L 0.90625 -2.9375 L 1.328125 -0.59375 L 1.34375 -0.59375 L 2.546875 -2.9375 Z M 3.046875 -2.9375 "/></g></g></g><g fill="#545454" fill-opacity="1"><g transform="translate(15.332634, 13.72529)"><g><path d="M 1.390625 0.0625 C 1.109375 0.0625 0.875 0 0.6875 -0.125 C 0.507812 -0.25 0.382812 -0.425781 0.3125 -0.65625 C 0.238281 -0.882812 0.226562 -1.144531 0.28125 -1.4375 C 0.320312 -1.738281 0.414062 -2.003906 0.5625 -2.234375 C 0.71875 -2.460938 0.90625 -2.640625 1.125 -2.765625 C 1.34375 -2.898438 1.582031 -2.96875 1.84375 -2.96875 C 2 -2.96875 2.144531 -2.941406 2.28125 -2.890625 C 2.425781 -2.835938 2.550781 -2.753906 2.65625 -2.640625 C 2.757812 -2.523438 2.832031 -2.375 2.875 -2.1875 C 2.914062 -2.007812 2.910156 -1.78125 2.859375 -1.5 L 2.828125 -1.3125 L 0.703125 -1.3125 C 0.648438 -0.957031 0.691406 -0.707031 0.828125 -0.5625 C 0.960938 -0.414062 1.171875 -0.34375 1.453125 -0.34375 C 1.640625 -0.34375 1.800781 -0.378906 1.9375 -0.453125 C 2.070312 -0.535156 2.179688 -0.648438 2.265625 -0.796875 L 2.6875 -0.671875 C 2.570312 -0.453125 2.398438 -0.273438 2.171875 -0.140625 C 1.953125 -0.00390625 1.691406 0.0625 1.390625 0.0625 Z M 0.765625 -1.703125 L 2.4375 -1.703125 C 2.476562 -1.953125 2.4375 -2.15625 2.3125 -2.3125 C 2.195312 -2.476562 2.019531 -2.5625 1.78125 -2.5625 C 1.613281 -2.5625 1.457031 -2.519531 1.3125 -2.4375 C 1.175781 -2.351562 1.054688 -2.242188 0.953125 -2.109375 C 0.859375 -1.972656 0.796875 -1.835938 0.765625 -1.703125 Z M 0.765625 -1.703125 "/></g></g></g><g fill="#545454" fill-opacity="1"><g transform="translate(18.46962, 13.72529)"><g/></g></g><g fill="#545454" fill-opacity="1"><g transform="translate(19.980872, 13.72529)"><g><path d="M 0.546875 -3.90625 L 1.078125 -3.90625 L 1.875 -2.078125 L 1.921875 -2.078125 L 3.296875 -3.90625 L 3.84375 -3.90625 L 2.046875 -1.609375 L 1.78125 0 L 1.3125 0 L 1.578125 -1.609375 Z M 0.546875 -3.90625 "/></g></g></g><g fill="#545454" fill-opacity="1"><g transform="translate(23.140628, 13.72529)"><g><path d="M 1.375 0.0625 C 1.113281 0.0625 0.890625 0 0.703125 -0.125 C 0.523438 -0.257812 0.394531 -0.441406 0.3125 -0.671875 C 0.238281 -0.898438 0.226562 -1.171875 0.28125 -1.484375 C 0.332031 -1.785156 0.429688 -2.046875 0.578125 -2.265625 C 0.722656 -2.492188 0.898438 -2.664062 1.109375 -2.78125 C 1.328125 -2.90625 1.566406 -2.96875 1.828125 -2.96875 C 2.097656 -2.96875 2.320312 -2.898438 2.5 -2.765625 C 2.6875 -2.640625 2.816406 -2.460938 2.890625 -2.234375 C 2.960938 -2.003906 2.972656 -1.734375 2.921875 -1.421875 C 2.878906 -1.117188 2.785156 -0.859375 2.640625 -0.640625 C 2.492188 -0.421875 2.3125 -0.25 2.09375 -0.125 C 1.875 0 1.632812 0.0625 1.375 0.0625 Z M 1.390625 -0.34375 C 1.597656 -0.34375 1.773438 -0.394531 1.921875 -0.5 C 2.078125 -0.601562 2.203125 -0.738281 2.296875 -0.90625 C 2.390625 -1.082031 2.453125 -1.273438 2.484375 -1.484375 C 2.515625 -1.671875 2.515625 -1.847656 2.484375 -2.015625 C 2.453125 -2.179688 2.378906 -2.3125 2.265625 -2.40625 C 2.160156 -2.507812 2.007812 -2.5625 1.8125 -2.5625 C 1.613281 -2.5625 1.4375 -2.507812 1.28125 -2.40625 C 1.125 -2.300781 1 -2.160156 0.90625 -1.984375 C 0.8125 -1.804688 0.75 -1.617188 0.71875 -1.421875 C 0.6875 -1.234375 0.6875 -1.054688 0.71875 -0.890625 C 0.75 -0.722656 0.816406 -0.585938 0.921875 -0.484375 C 1.035156 -0.390625 1.191406 -0.34375 1.390625 -0.34375 Z M 1.390625 -0.34375 "/></g></g></g><g fill="#545454" fill-opacity="1"><g transform="translate(26.346308, 13.72529)"><g><path d="M 2.21875 -1.203125 L 2.5 -2.9375 L 2.953125 -2.9375 L 2.46875 0 L 2.015625 0 L 2.09375 -0.5 L 2.0625 -0.5 C 1.976562 -0.34375 1.851562 -0.210938 1.6875 -0.109375 C 1.519531 -0.015625 1.328125 0.03125 1.109375 0.03125 C 0.828125 0.03125 0.613281 -0.0546875 0.46875 -0.234375 C 0.320312 -0.410156 0.28125 -0.6875 0.34375 -1.0625 L 0.65625 -2.9375 L 1.109375 -2.9375 L 0.796875 -1.09375 C 0.765625 -0.882812 0.796875 -0.710938 0.890625 -0.578125 C 0.992188 -0.453125 1.140625 -0.390625 1.328125 -0.390625 C 1.441406 -0.390625 1.5625 -0.414062 1.6875 -0.46875 C 1.8125 -0.53125 1.921875 -0.617188 2.015625 -0.734375 C 2.117188 -0.859375 2.1875 -1.015625 2.21875 -1.203125 Z M 2.21875 -1.203125 "/></g></g></g><g fill="#545454" fill-opacity="1"><g transform="translate(29.468032, 13.72529)"><g><path d="M 0.171875 0 L 0.65625 -2.9375 L 1.09375 -2.9375 L 1.015625 -2.484375 L 1.046875 -2.484375 C 1.117188 -2.628906 1.234375 -2.75 1.390625 -2.84375 C 1.546875 -2.9375 1.710938 -2.984375 1.890625 -2.984375 C 2.046875 -2.984375 2.164062 -2.945312 2.25 -2.875 L 2.03125 -2.5 C 1.976562 -2.53125 1.894531 -2.546875 1.78125 -2.546875 C 1.632812 -2.546875 1.5 -2.515625 1.375 -2.453125 C 1.257812 -2.390625 1.160156 -2.304688 1.078125 -2.203125 C 0.992188 -2.097656 0.941406 -1.984375 0.921875 -1.859375 L 0.625 0 Z M 0.171875 0 "/></g></g></g><g fill="#545454" fill-opacity="1"><g transform="translate(31.528828, 13.72529)"><g/></g></g><g fill="#ff3131" fill-opacity="1"><g transform="translate(33.04281, 13.72529)"><g><path d="M 0.390625 0 L -0.109375 0 L 1.984375 -3.90625 L 2.46875 -3.90625 L 3.25 0 L 2.75 0 L 2.546875 -1.109375 L 0.96875 -1.109375 Z M 1.1875 -1.53125 L 2.46875 -1.53125 L 2.140625 -3.296875 L 2.109375 -3.296875 Z M 1.1875 -1.53125 "/></g></g></g><g fill="#ff3131" fill-opacity="1"><g transform="translate(36.675914, 13.72529)"><g><path d="M 1.34375 -3.90625 L 0.703125 0 L 0.234375 0 L 0.875 -3.90625 Z M 1.34375 -3.90625 "/></g></g></g></g></g></svg>